<svg width="64" height="64" viewBox="0 0 64 64" fill="none" xmlns="http://www.w3.org/2000/svg">
  <rect width="64" height="64" rx="18" fill="#0B1220"/>
  <rect x="5" y="5" width="54" height="54" rx="15" stroke="url(#stroke)" stroke-width="2"/>
  <path d="M18 16H28.5C34.8513 16 40 21.1487 40 27.5C40 33.8513 34.8513 39 28.5 39H24V48H18V16ZM24 33H28.5C31.5376 33 34 30.5376 34 27.5C34 24.4624 31.5376 22 28.5 22H24V33Z" fill="url(#accent)"/>
  <path d="M43 18H49V48H43V18Z" fill="#DDF6FF"/>
  <defs>
    <linearGradient id="accent" x1="18" y1="16" x2="49" y2="48" gradientUnits="userSpaceOnUse">
      <stop stop-color="#78C5FF"/>
      <stop offset="1" stop-color="#C8FF7A"/>
    </linearGradient>
    <linearGradient id="stroke" x1="9" y1="7" x2="55" y2="57" gradientUnits="userSpaceOnUse">
      <stop stop-color="#5E7EF8" stop-opacity="0.45"/>
      <stop offset="1" stop-color="#C8FF7A" stop-opacity="0.5"/>
    </linearGradient>
  </defs>
</svg>
