<svg width="1280" height="860" viewBox="0 0 1280 860" fill="none" xmlns="http://www.w3.org/2000/svg">
  <rect width="1280" height="860" rx="36" fill="#0B1220"/>
  <rect x="54" y="54" width="1172" height="752" rx="30" fill="#121B2F" stroke="#263550" stroke-width="2"/>
  <rect x="96" y="112" width="220" height="34" rx="17" fill="#93F5B2" fill-opacity="0.14"/>
  <text x="118" y="135" fill="#93F5B2" font-size="18" font-family="Arial, sans-serif" letter-spacing="3">FINAL PROJECT</text>
  <text x="96" y="232" fill="#F8FBFF" font-size="64" font-family="Arial, sans-serif" font-weight="700">Finance Tracker</text>
  <text x="96" y="294" fill="#9FB1CF" font-size="28" font-family="Arial, sans-serif">Go, PostgreSQL, Docker, REST API, transaction filters</text>
  <rect x="96" y="354" width="520" height="314" rx="28" fill="#0D1527" stroke="#24324B"/>
  <rect x="132" y="396" width="180" height="28" rx="14" fill="#7CC8FF" fill-opacity="0.18"/>
  <rect x="132" y="448" width="448" height="20" rx="10" fill="#1D2A43"/>
  <rect x="132" y="486" width="388" height="20" rx="10" fill="#1D2A43"/>
  <rect x="132" y="542" width="208" height="92" rx="18" fill="#111E36"/>
  <rect x="364" y="542" width="208" height="92" rx="18" fill="#111E36"/>
  <rect x="674" y="354" width="464" height="314" rx="28" fill="#0D1527" stroke="#24324B"/>
  <path d="M732 600L808 520L878 560L968 454L1070 506" stroke="#93F5B2" stroke-width="12" stroke-linecap="round" stroke-linejoin="round"/>
  <circle cx="808" cy="520" r="12" fill="#7CC8FF"/>
  <circle cx="968" cy="454" r="12" fill="#7CC8FF"/>
</svg>
