<svg width="1280" height="860" viewBox="0 0 1280 860" fill="none" xmlns="http://www.w3.org/2000/svg">
  <rect width="1280" height="860" rx="36" fill="#09111D"/>
  <circle cx="1038" cy="180" r="178" fill="#7CC8FF" fill-opacity="0.14"/>
  <circle cx="210" cy="708" r="190" fill="#93F5B2" fill-opacity="0.10"/>
  <rect x="54" y="54" width="1172" height="752" rx="30" fill="#121B2F" stroke="#263550" stroke-width="2"/>
  <rect x="96" y="112" width="190" height="34" rx="17" fill="#93F5B2" fill-opacity="0.14"/>
  <text x="120" y="135" fill="#93F5B2" font-size="18" font-family="Arial, sans-serif" letter-spacing="3">LIVE REFERENCE</text>
  <text x="96" y="232" fill="#F8FBFF" font-size="64" font-family="Arial, sans-serif" font-weight="700">Axorus Online</text>
  <text x="96" y="294" fill="#9FB1CF" font-size="28" font-family="Arial, sans-serif">Public web platform, polished presentation, deployment-ready delivery</text>
  <rect x="96" y="354" width="520" height="314" rx="28" fill="#0D1527" stroke="#24324B"/>
  <rect x="132" y="394" width="140" height="20" rx="10" fill="#7CC8FF" fill-opacity="0.2"/>
  <rect x="132" y="436" width="320" height="20" rx="10" fill="#1D2A43"/>
  <rect x="132" y="474" width="280" height="20" rx="10" fill="#1D2A43"/>
  <rect x="132" y="532" width="186" height="92" rx="18" fill="#111E36"/>
  <rect x="342" y="532" width="186" height="92" rx="18" fill="#111E36"/>
  <rect x="674" y="354" width="464" height="314" rx="28" fill="#0D1527" stroke="#24324B"/>
  <rect x="712" y="392" width="388" height="210" rx="22" fill="#121E34"/>
  <rect x="742" y="426" width="130" height="20" rx="10" fill="#93F5B2" fill-opacity="0.25"/>
  <rect x="742" y="470" width="254" height="16" rx="8" fill="#324768"/>
  <rect x="742" y="500" width="206" height="16" rx="8" fill="#324768"/>
  <rect x="742" y="548" width="82" height="18" rx="9" fill="#7CC8FF"/>
  <rect x="836" y="548" width="74" height="18" rx="9" fill="#93F5B2"/>
</svg>
